<mxfile host="app.diagrams.net" agent="Mozilla/5.0 (Windows NT 10.0; Win64; x64) AppleWebKit/537.36 (KHTML, like Gecko) Chrome/130.0.0.0 Safari/537.36" version="24.7.17">
  <diagram name="Page-1" id="4h6Dv3KsNTSaUIS8jJY9">
    <mxGraphModel dx="1434" dy="818" grid="1" gridSize="10" guides="1" tooltips="1" connect="1" arrows="1" fold="1" page="1" pageScale="1" pageWidth="850" pageHeight="1100" math="0" shadow="0">
      <root>
        <mxCell id="0" />
        <mxCell id="1" parent="0" />
        <mxCell id="zL9_kGWf-9Vo248E0XP2-4" value="" style="edgeStyle=orthogonalEdgeStyle;rounded=0;orthogonalLoop=1;jettySize=auto;html=1;" edge="1" parent="1" source="zL9_kGWf-9Vo248E0XP2-1" target="zL9_kGWf-9Vo248E0XP2-3">
          <mxGeometry relative="1" as="geometry" />
        </mxCell>
        <mxCell id="zL9_kGWf-9Vo248E0XP2-1" value="Mulai" style="strokeWidth=2;html=1;shape=mxgraph.flowchart.start_1;whiteSpace=wrap;" vertex="1" parent="1">
          <mxGeometry x="40" y="20" width="100" height="60" as="geometry" />
        </mxCell>
        <mxCell id="zL9_kGWf-9Vo248E0XP2-6" value="" style="edgeStyle=orthogonalEdgeStyle;rounded=0;orthogonalLoop=1;jettySize=auto;html=1;" edge="1" parent="1" source="zL9_kGWf-9Vo248E0XP2-3" target="zL9_kGWf-9Vo248E0XP2-5">
          <mxGeometry relative="1" as="geometry" />
        </mxCell>
        <mxCell id="zL9_kGWf-9Vo248E0XP2-3" value="Input angka pada&lt;br&gt;keypad" style="shape=parallelogram;perimeter=parallelogramPerimeter;whiteSpace=wrap;html=1;fixedSize=1;strokeWidth=2;" vertex="1" parent="1">
          <mxGeometry x="30" y="110" width="120" height="60" as="geometry" />
        </mxCell>
        <mxCell id="zL9_kGWf-9Vo248E0XP2-8" value="" style="edgeStyle=orthogonalEdgeStyle;rounded=0;orthogonalLoop=1;jettySize=auto;html=1;" edge="1" parent="1" source="zL9_kGWf-9Vo248E0XP2-5" target="zL9_kGWf-9Vo248E0XP2-7">
          <mxGeometry relative="1" as="geometry" />
        </mxCell>
        <mxCell id="zL9_kGWf-9Vo248E0XP2-14" value="" style="edgeStyle=orthogonalEdgeStyle;rounded=0;orthogonalLoop=1;jettySize=auto;html=1;" edge="1" parent="1" source="zL9_kGWf-9Vo248E0XP2-5" target="zL9_kGWf-9Vo248E0XP2-13">
          <mxGeometry relative="1" as="geometry" />
        </mxCell>
        <mxCell id="zL9_kGWf-9Vo248E0XP2-5" value="Jika" style="rhombus;whiteSpace=wrap;html=1;strokeWidth=2;" vertex="1" parent="1">
          <mxGeometry x="250" y="100" width="80" height="80" as="geometry" />
        </mxCell>
        <mxCell id="zL9_kGWf-9Vo248E0XP2-7" value="Output&lt;br&gt;&quot;ACCESS DENIED&quot;" style="shape=parallelogram;perimeter=parallelogramPerimeter;whiteSpace=wrap;html=1;fixedSize=1;strokeWidth=2;" vertex="1" parent="1">
          <mxGeometry x="450" y="105" width="140" height="70" as="geometry" />
        </mxCell>
        <mxCell id="zL9_kGWf-9Vo248E0XP2-9" value="Angka &amp;gt;4&lt;br&gt;atau&lt;span style=&quot;color: rgba(0, 0, 0, 0); font-family: monospace; font-size: 0px; text-align: start; text-wrap-mode: nowrap;&quot;&gt;%3CmxGraphModel%3E%3Croot%3E%3CmxCell%20id%3D%220%22%2F%3E%3CmxCell%20id%3D%221%22%20parent%3D%220%22%2F%3E%3CmxCell%20id%3D%222%22%20value%3D%22Angka%20%26amp%3Bgt%3B4%26lt%3Bbr%26gt%3Batau%26lt%3Bdiv%26gt%3B%26lt%3Bbr%2F%26gt%3B%26lt%3B%2Fdiv%26gt%3B%22%20style%3D%22text%3Bhtml%3D1%3Balign%3Dcenter%3BverticalAlign%3Dmiddle%3BwhiteSpace%3Dwrap%3Brounded%3D0%3B%22%20vertex%3D%221%22%20parent%3D%221%22%3E%3CmxGeometry%20x%3D%22330%22%20y%3D%22100%22%20width%3D%2260%22%20height%3D%2230%22%20as%3D%22geometry%22%2F%3E%3C%2FmxCell%3E%3C%2Froot%3E%3C%2FmxGraphModel%3E&lt;/span&gt;" style="text;html=1;align=center;verticalAlign=middle;whiteSpace=wrap;rounded=0;" vertex="1" parent="1">
          <mxGeometry x="350" y="100" width="60" height="30" as="geometry" />
        </mxCell>
        <mxCell id="zL9_kGWf-9Vo248E0XP2-11" value="Angka&lt;br&gt;!= pass" style="text;html=1;align=center;verticalAlign=middle;whiteSpace=wrap;rounded=0;" vertex="1" parent="1">
          <mxGeometry x="350" y="145" width="60" height="30" as="geometry" />
        </mxCell>
        <mxCell id="zL9_kGWf-9Vo248E0XP2-17" value="" style="edgeStyle=orthogonalEdgeStyle;rounded=0;orthogonalLoop=1;jettySize=auto;html=1;" edge="1" parent="1" source="zL9_kGWf-9Vo248E0XP2-13" target="zL9_kGWf-9Vo248E0XP2-16">
          <mxGeometry relative="1" as="geometry" />
        </mxCell>
        <mxCell id="zL9_kGWf-9Vo248E0XP2-13" value="Output&lt;br&gt;&quot;ACCESS GRANTED&quot;" style="shape=parallelogram;perimeter=parallelogramPerimeter;whiteSpace=wrap;html=1;fixedSize=1;strokeWidth=2;" vertex="1" parent="1">
          <mxGeometry x="220" y="230" width="140" height="70" as="geometry" />
        </mxCell>
        <mxCell id="zL9_kGWf-9Vo248E0XP2-15" value="Angka&lt;br&gt;== pass" style="text;html=1;align=center;verticalAlign=middle;whiteSpace=wrap;rounded=0;" vertex="1" parent="1">
          <mxGeometry x="290" y="180" width="60" height="30" as="geometry" />
        </mxCell>
        <mxCell id="zL9_kGWf-9Vo248E0XP2-19" value="" style="edgeStyle=orthogonalEdgeStyle;rounded=0;orthogonalLoop=1;jettySize=auto;html=1;" edge="1" parent="1" source="zL9_kGWf-9Vo248E0XP2-16" target="zL9_kGWf-9Vo248E0XP2-18">
          <mxGeometry relative="1" as="geometry" />
        </mxCell>
        <mxCell id="zL9_kGWf-9Vo248E0XP2-16" value="Putar Servo 90 derajat selama 5 detik" style="whiteSpace=wrap;html=1;strokeWidth=2;" vertex="1" parent="1">
          <mxGeometry x="230" y="340" width="120" height="60" as="geometry" />
        </mxCell>
        <mxCell id="zL9_kGWf-9Vo248E0XP2-18" value="Posisikan kembali servo" style="whiteSpace=wrap;html=1;strokeWidth=2;" vertex="1" parent="1">
          <mxGeometry x="230" y="430" width="120" height="60" as="geometry" />
        </mxCell>
        <mxCell id="zL9_kGWf-9Vo248E0XP2-21" value="Selesai" style="strokeWidth=2;html=1;shape=mxgraph.flowchart.start_1;whiteSpace=wrap;" vertex="1" parent="1">
          <mxGeometry x="470" y="430" width="100" height="60" as="geometry" />
        </mxCell>
        <mxCell id="zL9_kGWf-9Vo248E0XP2-22" style="edgeStyle=orthogonalEdgeStyle;rounded=0;orthogonalLoop=1;jettySize=auto;html=1;entryX=0.5;entryY=0;entryDx=0;entryDy=0;entryPerimeter=0;" edge="1" parent="1" source="zL9_kGWf-9Vo248E0XP2-7" target="zL9_kGWf-9Vo248E0XP2-21">
          <mxGeometry relative="1" as="geometry" />
        </mxCell>
        <mxCell id="zL9_kGWf-9Vo248E0XP2-23" style="edgeStyle=orthogonalEdgeStyle;rounded=0;orthogonalLoop=1;jettySize=auto;html=1;entryX=0;entryY=0.5;entryDx=0;entryDy=0;entryPerimeter=0;" edge="1" parent="1" source="zL9_kGWf-9Vo248E0XP2-18" target="zL9_kGWf-9Vo248E0XP2-21">
          <mxGeometry relative="1" as="geometry" />
        </mxCell>
      </root>
    </mxGraphModel>
  </diagram>
</mxfile>
